<?xml version="1.0" encoding="UTF-8"?>
<svg width="128pt" height="128pt" version="1.1" viewBox="0 0 128 128" xmlns="http://www.w3.org/2000/svg">
 <path d="m45.031 74.957c-0.15625-0.003906-0.3125-0.042969-0.44922-0.11719l-6.0547-3.1602-6.0547 3.1758c-0.32812 0.16797-0.72266 0.14062-1.0195-0.078125-0.29688-0.21484-0.44922-0.58203-0.38672-0.94531l1.1641-6.7461-4.9023-4.7734v-0.003906c-0.26172-0.25391-0.35547-0.63672-0.24219-0.98438 0.10937-0.34766 0.40625-0.60547 0.76562-0.66406l6.707-0.98828 3.0469-6.1055c0.16406-0.32812 0.50391-0.53516 0.87109-0.53516 0.36719 0 0.70703 0.20703 0.87109 0.53516l3.0469 6.1055 6.7461 0.98438v0.003906c0.36719 0.050782 0.67188 0.30859 0.78906 0.66406 0.11328 0.35156 0.015624 0.74219-0.25391 1l-4.875 4.7734 1.1641 6.7461c0.042968 0.25781-0.015625 0.51953-0.16797 0.73047-0.15234 0.21094-0.38281 0.35547-0.63672 0.39453h-0.17969zm-6.5039-5.3359c0.15625 0 0.3125 0.039062 0.44922 0.11328l4.7617 2.5586-0.91016-5.3008v0.003906c-0.070313-0.32422 0.03125-0.66406 0.26953-0.89844l3.8398-3.75-5.3359-0.76953v0.003906c-0.33203-0.039062-0.62109-0.23828-0.76953-0.53906l-2.3047-4.875-2.3789 4.8242c-0.14844 0.29687-0.4375 0.5-0.76953 0.53906l-5.3359 0.76953 3.8398 3.75v-0.003906c0.22656 0.22266 0.33203 0.54297 0.28125 0.85938l-0.88281 5.2969 4.7617-2.5586c0.16406-0.085937 0.35156-0.12109 0.53516-0.10156zm-18.43 5.3359c-0.15625-0.003906-0.3125-0.042969-0.44922-0.11719l-6.0547-3.1602-6.0547 3.1758c-0.32812 0.16797-0.72266 0.14062-1.0195-0.078125-0.30078-0.21484-0.44922-0.58203-0.38672-0.94531l1.1641-6.7461-4.9023-4.7773c-0.26172-0.25391-0.35547-0.63672-0.24219-0.98438 0.10938-0.34766 0.40625-0.60547 0.76562-0.66406l6.7695-0.98438 3.0469-6.1055v-0.003906c0.16797-0.32812 0.50391-0.53516 0.87109-0.53516 0.37109 0 0.70703 0.20703 0.87109 0.53516l3.0469 6.1055 6.7461 0.98438v0.003906c0.36719 0.050782 0.67188 0.30859 0.78906 0.66406 0.11328 0.35156 0.015625 0.74219-0.25391 1l-4.9023 4.7734 1.1641 6.7461h0.003906c0.042969 0.25781-0.015624 0.51953-0.16797 0.73047-0.15234 0.21094-0.38281 0.35547-0.64062 0.39453h-0.16406zm-6.5039-5.3359c0.15625 0 0.30859 0.039062 0.44922 0.11328l4.7617 2.5586-0.88281-5.3477c-0.070313-0.32812 0.03125-0.66406 0.26562-0.89844l3.8398-3.75-5.3867-0.76562c-0.33203-0.039062-0.62109-0.24219-0.76953-0.53906l-2.293-4.8242-2.3672 4.8242c-0.14453 0.29687-0.43359 0.5-0.76563 0.53906l-5.3242 0.75391 3.8398 3.75c0.22656 0.22266 0.33203 0.54297 0.28125 0.85938l-0.91016 5.3008 4.7617-2.5586v-0.003907c0.16797-0.085937 0.35156-0.12109 0.53906-0.10156zm56.73 5.3359c-0.15625-0.003906-0.3125-0.042969-0.44922-0.11719l-6.0547-3.1602-6.0547 3.1758c-0.32812 0.16797-0.72266 0.14062-1.0195-0.078125-0.29688-0.21484-0.44922-0.58203-0.38672-0.94531l1.1641-6.7461-4.9141-4.7891c-0.26953-0.25781-0.36719-0.64453-0.25391-1 0.11719-0.35156 0.42188-0.60938 0.78906-0.66406l6.7344-0.97266 3.0469-6.1055c0.16406-0.32813 0.5-0.53906 0.87109-0.53906 0.36719 0 0.70312 0.21094 0.86719 0.53906l3.0469 6.1055 6.7695 0.98438h0.003906c0.36719 0.054688 0.67188 0.3125 0.78906 0.66406 0.11328 0.35547 0.015624 0.74219-0.25391 1l-4.875 4.7891 1.1641 6.7461c0.042968 0.25781-0.015625 0.51953-0.16797 0.73047-0.15234 0.21094-0.38281 0.35547-0.63672 0.39453h-0.17969zm-6.5039-5.3359c0.15625 0 0.3125 0.039062 0.44922 0.11328l4.7617 2.4688-0.92188-5.3008v0.003906c-0.054687-0.31641 0.050781-0.63672 0.28125-0.85938l3.8398-3.75-5.3359-0.76953v0.003906c-0.33203-0.039062-0.62109-0.24219-0.76953-0.53906l-2.3789-4.8242-2.3047 4.8242c-0.14844 0.29687-0.4375 0.5-0.76953 0.53906l-5.3359 0.76953 3.8398 3.75v-0.003906c0.22656 0.22266 0.33203 0.54297 0.28125 0.85938l-0.91016 5.3008 4.7617-2.5586v-0.003907c0.17188-0.089843 0.37109-0.125 0.5625-0.10156zm31.781 5.3359c-0.15625-0.003906-0.30859-0.042969-0.44531-0.11719l-6.0547-3.1602-6.0547 3.1758c-0.32812 0.16797-0.72266 0.14062-1.0195-0.078125-0.30078-0.21484-0.44922-0.58203-0.39062-0.94531l1.1641-6.7461-4.9023-4.7734 0.003906-0.003906c-0.26172-0.25391-0.35547-0.63672-0.24609-0.98438 0.11328-0.34766 0.41016-0.60547 0.76953-0.66406l6.7695-0.98438 3.0469-6.1055v-0.003906c0.16406-0.32812 0.50391-0.53516 0.87109-0.53516 0.36719 0 0.70703 0.20703 0.87109 0.53516l3.0469 6.1055 6.7461 0.98438v0.003906c0.36719 0.050782 0.67188 0.30859 0.78906 0.66406 0.11328 0.35156 0.015625 0.74219-0.25391 1l-4.9023 4.7734 1.1641 6.7461c0.046875 0.25781-0.015625 0.51953-0.16406 0.73047-0.15234 0.21094-0.38281 0.35547-0.64062 0.39453h-0.17969zm-6.5039-5.3359h0.003906c0.15625 0 0.30859 0.039062 0.44531 0.11328l4.7617 2.5586-0.86719-5.3477c-0.070312-0.32812 0.03125-0.66406 0.26562-0.89844l3.8398-3.75-5.3867-0.76562c-0.33203-0.039062-0.62109-0.24219-0.76953-0.53906l-2.293-4.8242-2.3789 4.8242c-0.14453 0.29687-0.4375 0.5-0.76562 0.53906l-5.3359 0.76953 3.8398 3.75-0.003906-0.003906c0.23047 0.22266 0.33594 0.54297 0.28125 0.85938l-0.91016 5.3008 4.7617-2.5586 0.003906-0.003907c0.16406-0.085937 0.35156-0.12109 0.53516-0.10156zm31.797 5.3359c-0.15625-0.003906-0.30859-0.042969-0.44531-0.11719l-6.0547-3.1602-6.0547 3.1758c-0.32812 0.16797-0.72266 0.14062-1.0195-0.078125-0.30078-0.21484-0.44922-0.58203-0.39062-0.94531l1.1641-6.7461-4.9023-4.7734 0.003906-0.003906c-0.26953-0.25781-0.36719-0.64453-0.25391-1 0.11719-0.35156 0.42188-0.60938 0.78906-0.66406l6.7344-0.97266 3.0469-6.1055c0.16406-0.32812 0.5-0.53516 0.86719-0.53516 0.37109 0 0.70703 0.20703 0.87109 0.53516l3.0469 6.1055 6.7695 0.98438 0.003906 0.003906c0.36719 0.050782 0.67188 0.30859 0.78906 0.66406 0.11328 0.35156 0.015625 0.74219-0.25391 1l-4.9023 4.7734 1.1641 6.7461c0.046874 0.25781-0.015626 0.51953-0.16406 0.73047-0.15234 0.21094-0.38281 0.35547-0.64062 0.39453h-0.17969zm-6.5039-5.3359h0.003906c0.15625 0 0.30859 0.039062 0.44531 0.11328l4.7617 2.4688-0.92187-5.3008v0.003906c-0.050782-0.31641 0.054687-0.63672 0.28516-0.85938l3.8398-3.75-5.3359-0.76953-0.003906 0.003906c-0.33203-0.039062-0.62109-0.24219-0.76562-0.53906l-2.3945-4.8125-2.3281 4.8125h-0.003906c-0.14453 0.29687-0.43359 0.5-0.76562 0.53906l-5.3359 0.76953 3.8398 3.75-0.003907-0.003906c0.23047 0.22266 0.33594 0.54297 0.28516 0.85938l-0.91016 5.3008 4.7617-2.5586v-0.003907c0.17188-0.089843 0.36719-0.125 0.5625-0.10156z"/>
</svg>
