<?xml version="1.0" encoding="UTF-8"?>
<svg width="128pt" height="128pt" version="1.1" viewBox="0 0 128 128" fill="grey" xmlns="http://www.w3.org/2000/svg">
 <path d="m46.773 15.027c-0.48438-0.003906-0.97266 0.023437-1.4609 0.089844-3.9219 0.52734-7.0625 3.2695-8.9609 6.9336-1.9023 3.6641-2.6758 8.3203-2.0156 13.223 0.66016 4.9023 2.6367 9.1875 5.4336 12.219 2.8008 3.0312 6.5547 4.8477 10.477 4.3242 3.9219-0.52734 7.0625-3.2695 8.9609-6.9336 1.9023-3.6641 2.6758-8.3203 2.0156-13.223s-2.6367-9.1914-5.4336-12.223c-2.4492-2.6523-5.6289-4.375-9.0117-4.4102zm34.504 0c-3.3828 0.035156-6.5625 1.7578-9.0117 4.4141-2.8008 3.0312-4.7773 7.3164-5.4336 12.219-0.66016 4.9023 0.11719 9.5586 2.0156 13.223 1.9023 3.6641 5.043 6.4062 8.9609 6.9336 3.9219 0.52734 7.6758-1.2852 10.477-4.3203 2.8008-3.0312 4.7773-7.3203 5.4336-12.223 0.66016-4.9023-0.11719-9.5586-2.0156-13.223-1.9023-3.6641-5.043-6.4062-8.9609-6.9336-0.48828-0.066407-0.98047-0.09375-1.4609-0.089844zm-34.531 3.8359c2.1562 0.019531 4.3164 1.1172 6.2188 3.1797 2.1758 2.3594 3.8867 5.9453 4.4492 10.129 0.5625 4.1797-0.14062 8.0938-1.6211 10.941-1.4766 2.8477-3.6094 4.5625-6.0664 4.8906-2.4531 0.32812-4.9688-0.75781-7.1445-3.1172s-3.8867-5.9453-4.4492-10.129c-0.5625-4.1797 0.14063-8.0977 1.6211-10.945 1.4766-2.8477 3.6133-4.5664 6.0664-4.8945 0.30859-0.042969 0.61328-0.058594 0.92188-0.058594zm34.559 0.003907c0.30859-0.003907 0.61719 0.015624 0.92187 0.054687 2.4531 0.32812 4.5859 2.0469 6.0664 4.8945 1.4766 2.8477 2.1836 6.7617 1.6211 10.941-0.5625 4.1797-2.2773 7.7695-4.4531 10.129-2.1758 2.3594-4.6875 3.4531-7.1406 3.1211-2.4531-0.32812-4.5859-2.0469-6.0664-4.8945-1.4766-2.8477-2.1797-6.7656-1.6211-10.945 0.5625-4.1797 2.2734-7.7695 4.4492-10.129 1.9062-2.0625 4.0664-3.1562 6.2188-3.1758zm-66.227 21.035c-1.9336 0.074218-3.8047 0.60547-5.4609 1.6875-3.3125 2.1641-4.9688 5.9883-5.1094 10.113-0.13672 4.125 1.1641 8.6641 3.8711 12.805 2.7031 4.1406 6.332 7.1602 10.164 8.6914s8.0039 1.5547 11.316-0.60938c3.3125-2.1641 4.9688-5.9883 5.1094-10.113 0.13672-4.125-1.1641-8.6602-3.8711-12.801-2.7031-4.1406-6.3359-7.1602-10.168-8.6914-1.918-0.76562-3.9141-1.1562-5.8516-1.082zm97.895 0c-1.9375-0.074219-3.9375 0.3125-5.8516 1.0781-3.832 1.5312-7.4609 4.5547-10.164 8.6953s-4.0078 8.6758-3.8711 12.801c0.13672 4.125 1.7969 7.9531 5.1094 10.113 3.3125 2.1641 7.4844 2.1406 11.316 0.60938s7.457-4.5508 10.164-8.6914c2.7031-4.1406 4.0117-8.6758 3.8711-12.801-0.13672-4.125-1.7969-7.9531-5.1094-10.113-1.6562-1.082-3.5273-1.6172-5.4609-1.6914zm-97.699 3.8203c1.3164-0.042968 2.7461 0.23047 4.2344 0.82812 2.9805 1.1914 6.0703 3.6953 8.375 7.2266 2.3047 3.5312 3.3555 7.3672 3.2461 10.574-0.10938 3.207-1.2969 5.6719-3.3711 7.0273-2.0742 1.3555-4.8086 1.4492-7.7891 0.25781-2.9805-1.1914-6.0703-3.6914-8.375-7.2266-2.3047-3.5312-3.3555-7.3672-3.2461-10.574 0.10938-3.207 1.2969-5.6797 3.3711-7.0312 1.0352-0.67578 2.2383-1.0391 3.5547-1.082zm97.508 0.003906c1.3164 0.042969 2.5195 0.40625 3.5547 1.082 2.0742 1.3555 3.2617 3.8203 3.3711 7.0273 0.10938 3.207-0.94141 7.043-3.2461 10.574-2.3047 3.5312-5.3984 6.0352-8.3789 7.2266-2.9805 1.1914-5.7148 1.0977-7.7891-0.25781-2.0742-1.3555-3.2617-3.8203-3.3672-7.0273-0.10938-3.207 0.9375-7.043 3.2461-10.574 2.3047-3.5312 5.3984-6.0352 8.3789-7.2266 1.4883-0.59766 2.918-0.86719 4.2344-0.82422zm-48.754 8.7656c-21.289 0-38.25 20.223-38.25 44.766 0 6.1367 0.94141 9.9727 3.5898 12.047 1.3242 1.0391 2.9609 1.418 4.5664 1.3906 1.6055-0.027343 3.2461-0.41406 4.9805-0.96094 6.9414-2.1875 15.723-7.0117 25.113-7.0117s18.176 4.8242 25.113 7.0117c1.7344 0.54688 3.375 0.93359 4.9805 0.96094 1.6055 0.027344 3.2422-0.35156 4.5664-1.3906 2.6484-2.0742 3.5898-5.9102 3.5898-12.047 0-24.543-16.961-44.766-38.254-44.766zm0 3.8398c18.84 0 34.414 18.145 34.414 40.926 0 5.6953-1.0859 8.2188-2.1172 9.0234-0.51562 0.40234-1.125 0.59375-2.1328 0.57422-1.0039-0.019531-2.3398-0.29688-3.8906-0.78906-6.207-1.957-15.594-7.1914-26.27-7.1914s-20.059 5.2344-26.266 7.1914c-1.5508 0.48828-2.8867 0.76953-3.8906 0.78906s-1.6172-0.17188-2.1328-0.57422c-1.0312-0.80859-2.1172-3.3281-2.1172-9.0234 0-22.781 15.566-40.926 34.41-40.926z"/>
</svg>
