<?xml version="1.0" encoding="UTF-8"?>
<svg width="128pt" height="128pt" version="1.1" viewBox="0 0 128 128" xmlns="http://www.w3.org/2000/svg">
 <path d="m114.59 61.594c2.9688-3.0195 3.9414-7.4258 2.6094-11.469-1.332-3.9922-4.7617-6.9102-8.9609-7.5273l-23.141-3.5312c-0.30859 0-0.61328-0.25781-0.76953-0.5625l-10.137-21.707c-1.8945-3.9922-5.7852-6.5039-10.137-6.5039-4.3516 0-8.293 2.457-10.137 6.5039l-10.137 21.707c-0.15234 0.30859-0.41016 0.51172-0.71875 0.5625l-23.141 3.5312c-4.1484 0.61328-7.5781 3.5312-8.9609 7.5273-1.332 4.043-0.35938 8.4492 2.6094 11.469l17.102 17.613s0.30859 0.5625 0.25781 0.92188l-3.9922 24.574c-0.71875 4.3008 1.0742 8.5508 4.6602 11.059 3.5312 2.5078 8.0898 2.7148 11.879 0.61328l20.172-11.211c0.30859-0.15234 0.61328-0.15234 0.92188 0l20.172 11.211c1.6914 0.97266 3.5859 1.4336 5.4258 1.4336 2.2539 0 4.5039-0.66406 6.3984-2.0469 3.5859-2.5078 5.3242-6.7578 4.6602-11.059l-3.9922-24.574c-0.050781-0.30859 0-0.66406 0.25781-0.92188l17.102-17.613zm-24.473 10.496c-2.457 2.5586-3.6367 6.1953-3.0195 9.6758l3.9922 24.574c0.050781 0.46094-0.050782 0.76953-0.41016 1.0234-0.46094 0.35938-0.87109 0.15234-1.0234 0.050781l-20.172-11.211c-1.6914-0.92188-3.5859-1.4336-5.4258-1.4336-1.8438 0-3.7383 0.46094-5.4258 1.4336l-20.172 11.211s-0.51172 0.30859-1.0234-0.050781c-0.35938-0.25781-0.51172-0.61328-0.41016-1.0234l3.9922-24.574c0.5625-3.5312-0.5625-7.168-3.0195-9.6758l-17.102-17.613c-0.35938-0.35937-0.35938-0.82031-0.25781-1.0742 0.15234-0.41016 0.41016-0.61328 0.76953-0.66406l23.141-3.5312c3.6875-0.5625 6.8594-2.9688 8.4492-6.3477l10.137-21.707s0.25781-0.5625 0.87109-0.5625c0.61328 0 0.82031 0.41016 0.87109 0.5625l10.137 21.707c1.5859 3.4297 4.7617 5.7852 8.4492 6.3477l23.141 3.5312c0.41016 0.050781 0.66406 0.30859 0.76953 0.66406 0.10156 0.30859 0.15234 0.71875-0.25781 1.0742l-17.102 17.613z"/>
</svg>
